<?xml version="1.0" encoding="UTF-8" standalone="no"?>
<!DOCTYPE svg PUBLIC "-//W3C//DTD SVG 1.0//EN" "http://www.w3.org/TR/2001/PR-SVG-20010719/DTD/svg10.dtd">
<svg width="42cm" height="12cm" viewBox="-84 105 831 223" xmlns="http://www.w3.org/2000/svg" xmlns:xlink="http://www.w3.org/1999/xlink">
  <g>
    <ellipse style="fill: #ff0000" cx="222.926" cy="299.563" rx="62.35" ry="18"/>
    <ellipse style="fill: none; fill-opacity:0; stroke-width: 2; stroke: #ff0000" cx="222.926" cy="299.563" rx="62.35" ry="18"/>
    <text font-size="12.8" style="fill: #000000;text-anchor:middle;font-family:monospace;font-style:normal;font-weight:normal" x="222.926" y="303.563">idArticulos</text>
    <line style="fill: none; fill-opacity:0; stroke-width: 2; stroke: #000000" x1="180.576" y1="307.563" x2="265.276" y2="307.563"/>
  </g>
  <g>
    <ellipse style="fill: #eac8ff" cx="691.121" cy="229.746" rx="54.65" ry="18"/>
    <ellipse style="fill: none; fill-opacity:0; stroke-width: 2; stroke: #eac8ff" cx="691.121" cy="229.746" rx="54.65" ry="18"/>
    <text font-size="12.8" style="fill: #000000;text-anchor:middle;font-family:monospace;font-style:normal;font-weight:normal" x="691.121" y="233.746">idTickets</text>
    <line style="fill: none; fill-opacity:0; stroke-width: 2; stroke: #000000" x1="656.471" y1="237.746" x2="725.771" y2="237.746"/>
  </g>
  <g>
    <polygon style="fill: #bfbfbf" points="330.578,130.462 369.828,106.912 409.078,130.462 369.828,154.012 "/>
    <polygon style="fill: none; fill-opacity:0; stroke-width: 2; stroke: #bfbfbf" points="330.578,130.462 369.828,106.912 409.078,130.462 369.828,154.012 "/>
    <text font-size="12.7998" style="fill: #000000;text-anchor:end;font-family:monospace;font-style:normal;font-weight:normal" x="324.578" y="124.462">1:N</text>
    <text font-size="12.7998" style="fill: #000000;text-anchor:start;font-family:monospace;font-style:normal;font-weight:normal" x="415.078" y="124.462">1:M</text>
    <text font-size="12.7998" style="fill: #000000;text-anchor:middle;font-family:monospace;font-style:normal;font-weight:normal" x="369.828" y="134.462">tiene</text>
  </g>
  <g>
    <rect style="fill: #ff0000" x="120.61" y="113.888" width="97.3" height="36"/>
    <rect style="fill: none; fill-opacity:0; stroke-width: 2; stroke: #ff0000" x="120.61" y="113.888" width="97.3" height="36"/>
    <text font-size="12.7998" style="fill: #000000;text-anchor:middle;font-family:monospace;font-style:normal;font-weight:normal" x="169.26" y="135.888">Articulos</text>
  </g>
  <g>
    <rect style="fill: #eac8ff" x="519.236" y="114.545" width="81.9" height="36"/>
    <rect style="fill: none; fill-opacity:0; stroke-width: 2; stroke: #eac8ff" x="519.236" y="114.545" width="81.9" height="36"/>
    <text font-size="12.7998" style="fill: #000000;text-anchor:middle;font-family:monospace;font-style:normal;font-weight:normal" x="560.186" y="136.545">Tickets</text>
  </g>
  <g>
    <ellipse style="fill: #ff0000" cx="-19.9298" cy="160.332" rx="62.35" ry="18"/>
    <ellipse style="fill: none; fill-opacity:0; stroke-width: 2; stroke: #ff0000" cx="-19.9298" cy="160.332" rx="62.35" ry="18"/>
    <text font-size="12.8" style="fill: #000000;text-anchor:middle;font-family:monospace;font-style:normal;font-weight:normal" x="-19.9298" y="164.332">descripción</text>
  </g>
  <g>
    <ellipse style="fill: #ff0000" cx="77.7551" cy="296.946" rx="50.8" ry="18"/>
    <ellipse style="fill: none; fill-opacity:0; stroke-width: 2; stroke: #ff0000" cx="77.7551" cy="296.946" rx="50.8" ry="18"/>
    <text font-size="12.8" style="fill: #000000;text-anchor:middle;font-family:monospace;font-style:normal;font-weight:normal" x="77.7551" y="300.946">cantidad</text>
  </g>
  <g>
    <ellipse style="fill: #ff0000" cx="-3.99318" cy="239.819" rx="43.1" ry="18"/>
    <ellipse style="fill: none; fill-opacity:0; stroke-width: 2; stroke: #ff0000" cx="-3.99318" cy="239.819" rx="43.1" ry="18"/>
    <text font-size="12.8" style="fill: #000000;text-anchor:middle;font-family:monospace;font-style:normal;font-weight:normal" x="-3.99318" y="243.819">precio</text>
  </g>
  <line style="fill: none; fill-opacity:0; stroke-width: 2; stroke: #ff0000" x1="119.63" y1="139.35" x2="36.3513" y2="151.87"/>
  <line style="fill: none; fill-opacity:0; stroke-width: 2; stroke: #ff0000" x1="175.342" y1="150.893" x2="216.883" y2="280.681"/>
  <line style="fill: none; fill-opacity:0; stroke-width: 2; stroke: #ff0000" x1="138.752" y1="150.893" x2="20.8463" y2="224.344"/>
  <line style="fill: none; fill-opacity:0; stroke-width: 2; stroke: #ff0000" x1="169.26" y1="131.888" x2="169.26" y2="131.888"/>
  <line style="fill: none; fill-opacity:0; stroke-width: 2; stroke: #ff0000" x1="158.732" y1="150.879" x2="88.0343" y2="278.405"/>
  <g>
    <ellipse style="fill: #eac8ff" cx="510.688" cy="199.512" rx="39.25" ry="18"/>
    <ellipse style="fill: none; fill-opacity:0; stroke-width: 2; stroke: #eac8ff" cx="510.688" cy="199.512" rx="39.25" ry="18"/>
    <text font-size="12.8" style="fill: #000000;text-anchor:middle;font-family:monospace;font-style:normal;font-weight:normal" x="510.688" y="203.512">fecha</text>
  </g>
  <line style="fill: none; fill-opacity:0; stroke-width: 2; stroke: #eac8ff" x1="546.138" y1="151.551" x2="523.86" y2="181.691"/>
  <line style="fill: none; fill-opacity:0; stroke-width: 2; stroke: #eac8ff" x1="585.775" y1="151.542" x2="668.161" y2="212.701"/>
  <line style="fill: none; fill-opacity:0; stroke-width: 2; stroke: #ff0000" x1="218.863" y1="131.536" x2="329.626" y2="130.748"/>
  <line style="fill: none; fill-opacity:0; stroke-width: 2; stroke: #eac8ff" x1="410.087" y1="130.902" x2="518.243" y2="132.086"/>
  <g>
    <ellipse style="fill: #bfbfbf" cx="368.558" cy="243.777" rx="81.6" ry="18"/>
    <ellipse style="fill: none; fill-opacity:0; stroke-width: 2; stroke: #bfbfbf" cx="368.558" cy="243.777" rx="81.6" ry="18"/>
    <text font-size="12.8" style="fill: #000000;text-anchor:middle;font-family:monospace;font-style:normal;font-weight:normal" x="368.558" y="247.777">cantidadArticulo</text>
  </g>
  <line style="fill: none; fill-opacity:0; stroke-width: 2; stroke: #bfbfbf" x1="369.554" y1="154.917" x2="368.771" y2="224.785"/>
  <g>
    <ellipse style="fill: #eac8ff" cx="563.047" cy="286.833" rx="66.2" ry="18"/>
    <ellipse style="fill: none; fill-opacity:0; stroke-width: 2; stroke: #eac8ff" cx="563.047" cy="286.833" rx="66.2" ry="18"/>
    <text font-size="12.8" style="fill: #000000;text-anchor:middle;font-family:monospace;font-style:normal;font-weight:normal" x="563.047" y="290.833">totalTickets</text>
  </g>
  <line style="fill: none; fill-opacity:0; stroke-width: 2; stroke: #eac8ff" x1="560.538" y1="151.539" x2="562.695" y2="267.839"/>
  <line style="fill: none; fill-opacity:0; stroke-width: 2; stroke: #eac8ff" x1="737.338" y1="325.013" x2="739.519" y2="327.194"/>
</svg>
